# xmcd CD database file
#
# Track frame offsets:
#	150
#	31050
#	54825
#	72750
#	94950
#	108465
#	126465
#	150630
#	175680
#	186480
#
# Disc length: 2893 seconds
#
# Revision: 2
# Processed by: cddbd v1.5.1PL0 Copyright (c) Steve Scherf et al.
# Submitted via: CDex 1.51
#
DISCID=820b4b0a
DTITLE=Zara Tellander - Himmelens hatt
DYEAR=2005
DGENRE=Jazz
TTITLE0=Stolts Margareta
TTITLE1=Gulle Sol
TTITLE2=Ack, Mitt Skepp
TTITLE3=En sjöman promenerade
TTITLE4=Georg Sjöman
TTITLE5=Pip
TTITLE6=Allehanda Ämbetshustrur
TTITLE7=Tobie Ängel
TTITLE8=Katta låg
TTITLE9=Min vilotimma ljuder
EXTD=YEAR: 2005
EXTT0=
EXTT1=
EXTT2=
EXTT3=
EXTT4=
EXTT5=
EXTT6=
EXTT7=
EXTT8=
EXTT9=
PLAYORDER=
